<svg width="22" height="22" viewBox="0 0 22 22" fill="none" xmlns="http://www.w3.org/2000/svg">
<path d="M9.52102 1.6239C9.70846 1.41799 9.93683 1.25349 10.1915 1.14092C10.4462 1.02836 10.7216 0.970215 11 0.970215C11.2785 0.970215 11.5539 1.02836 11.8085 1.14092C12.0632 1.25349 12.2916 1.41799 12.479 1.6239L13.499 2.7439C13.6971 2.96132 13.9406 3.13238 14.2123 3.24491C14.4841 3.35743 14.7772 3.40864 15.071 3.3949L16.584 3.3249C16.8621 3.3118 17.1398 3.35688 17.3994 3.45725C17.659 3.55762 17.8948 3.71108 18.0917 3.9078C18.2886 4.10452 18.4423 4.34017 18.5429 4.59969C18.6435 4.8592 18.6889 5.13686 18.676 5.4149L18.605 6.9289C18.5913 7.22268 18.6425 7.51586 18.755 7.78758C18.8675 8.0593 19.0386 8.30286 19.256 8.5009L20.376 9.5209C20.5819 9.70834 20.7464 9.93671 20.859 10.1914C20.9716 10.4461 21.0297 10.7215 21.0297 10.9999C21.0297 11.2783 20.9716 11.5537 20.859 11.8084C20.7464 12.0631 20.5819 12.2915 20.376 12.4789L19.256 13.4989C19.0386 13.6969 18.8675 13.9405 18.755 14.2122C18.6425 14.4839 18.5913 14.7771 18.605 15.0709L18.675 16.5839C18.6881 16.8619 18.643 17.1396 18.5427 17.3992C18.4423 17.6589 18.2888 17.8947 18.0921 18.0916C17.8954 18.2885 17.6598 18.4422 17.4002 18.5428C17.1407 18.6434 16.8631 18.6887 16.585 18.6759L15.071 18.6049C14.7772 18.5912 14.4841 18.6424 14.2123 18.7549C13.9406 18.8674 13.6971 19.0385 13.499 19.2559L12.479 20.3759C12.2916 20.5818 12.0632 20.7463 11.8085 20.8589C11.5539 20.9714 11.2785 21.0296 11 21.0296C10.7216 21.0296 10.4462 20.9714 10.1915 20.8589C9.93683 20.7463 9.70846 20.5818 9.52102 20.3759L8.50102 19.2559C8.30298 19.0385 8.05942 18.8674 7.7877 18.7549C7.51599 18.6424 7.2228 18.5912 6.92902 18.6049L5.41602 18.6749C5.13799 18.688 4.86029 18.6429 4.60068 18.5426C4.34107 18.4422 4.10527 18.2887 3.90836 18.092C3.71145 17.8953 3.55777 17.6596 3.45715 17.4001C3.35653 17.1406 3.31119 16.8629 3.32402 16.5849L3.39502 15.0709C3.40877 14.7771 3.35755 14.4839 3.24503 14.2122C3.1325 13.9405 2.96144 13.6969 2.74402 13.4989L1.62402 12.4789C1.41811 12.2915 1.25361 12.0631 1.14104 11.8084C1.02848 11.5537 0.970337 11.2783 0.970337 10.9999C0.970337 10.7215 1.02848 10.4461 1.14104 10.1914C1.25361 9.93671 1.41811 9.70834 1.62402 9.5209L2.74402 8.5009C2.96144 8.30286 3.1325 8.0593 3.24503 7.78758C3.35755 7.51586 3.40877 7.22268 3.39502 6.9289L3.32502 5.4159C3.31192 5.13787 3.357 4.86017 3.45737 4.60056C3.55774 4.34095 3.7112 4.10515 3.90792 3.90824C4.10464 3.71133 4.34029 3.55765 4.59981 3.45703C4.85932 3.35641 5.13698 3.31107 5.41502 3.3239L6.92902 3.3949C7.2228 3.40864 7.51599 3.35743 7.7877 3.24491C8.05942 3.13238 8.30298 2.96132 8.50102 2.7439L9.52102 1.6239V1.6239Z" stroke="#FFD446" stroke-width="1.5"/>
<path d="M8 11L10 13L14 9" stroke="#FFD446" stroke-width="1.5" stroke-linecap="round" stroke-linejoin="round"/>
</svg>
